<svg width="256" height="43" viewBox="0 0 256 43" fill="none" xmlns="http://www.w3.org/2000/svg">
<path d="M100.997 4.70173C100.997 2.28816 103.231 0.494693 105.587 1.0165L148.965 10.6218C153.869 11.7078 157.36 16.0562 157.36 21.0794V21.0794C157.36 26.1026 153.869 30.451 148.965 31.537L105.587 41.1423C103.231 41.6641 100.997 39.8707 100.997 37.4571V4.70173Z" fill="#161853"/>
<path fill-rule="evenodd" clip-rule="evenodd" d="M147.331 13.5724C143.185 13.5724 139.824 16.9333 139.824 21.0791V21.0791C139.824 25.225 143.185 28.5858 147.331 28.5858V28.5858C151.477 28.5858 154.838 25.225 154.838 21.0791V21.0791C154.838 16.9333 151.477 13.5724 147.331 13.5724V13.5724ZM147.604 25.5832C150.091 25.5832 152.108 23.5666 152.108 21.0791V21.0791C152.108 18.5916 150.091 16.5751 147.604 16.5751H147.058C144.57 16.5751 142.554 18.5916 142.554 21.0791V21.0791C142.554 23.5666 144.57 25.5832 147.058 25.5832H147.604Z" fill="white"/>
<path d="M122.081 15.0737C122.081 14.2446 122.753 13.5724 123.582 13.5724H136.924C137.018 13.5724 137.094 13.6485 137.094 13.7424V13.7424C137.094 15.3068 135.826 16.5751 134.261 16.5751H123.582C122.753 16.5751 122.081 15.9029 122.081 15.0737V15.0737Z" fill="white"/>
<path d="M122.081 21.0792C122.081 20.2501 122.753 19.5779 123.582 19.5779H135.593C136.422 19.5779 137.094 20.2501 137.094 21.0792V21.0792C137.094 21.9084 136.422 22.5806 135.593 22.5806H123.582C122.753 22.5806 122.081 21.9084 122.081 21.0792V21.0792Z" fill="white"/>
<path d="M122.081 27.0844C122.081 26.2552 122.753 25.583 123.582 25.583H134.262C135.826 25.583 137.094 26.8513 137.094 28.4157V28.4157C137.094 28.5096 137.018 28.5857 136.924 28.5857H123.582C122.753 28.5857 122.081 27.9135 122.081 27.0844V27.0844Z" fill="white"/>
<path d="M104.338 16.5751C104.338 14.9167 105.56 13.5724 107.068 13.5724H116.622C117.816 13.5724 118.831 14.4156 119.201 15.5901C119.367 16.1168 118.904 16.5751 118.351 16.5751H108.514C107.685 16.5751 107.013 17.2473 107.013 18.0764V18.0764C107.013 18.9056 107.685 19.5778 108.514 19.5778H116.622C118.129 19.5778 119.351 20.9221 119.351 22.5805V25.5832C119.351 27.2415 118.129 28.5858 116.622 28.5858H105.338C104.786 28.5858 104.322 28.1276 104.488 27.6009C104.859 26.4263 105.874 25.5832 107.068 25.5832H115.175C116.004 25.5832 116.676 24.911 116.676 24.0818V24.0818C116.676 23.2526 116.004 22.5805 115.175 22.5805H107.068C105.56 22.5805 104.338 21.2361 104.338 19.5778V16.5751Z" fill="white"/>
<path d="M21.6668 12.7124C21.7313 12.7124 21.7836 12.7647 21.7836 12.8292L21.7836 19.9989C21.7836 20.0671 21.8389 20.1224 21.9071 20.1224H34.2571C34.3253 20.1224 34.3806 20.0671 34.3806 19.9989V12.8292C34.3806 12.7647 34.4329 12.7124 34.4974 12.7124C35.6265 12.7124 36.5418 13.6277 36.5418 14.7568V29.5768C36.5418 29.6413 36.4895 29.6936 36.425 29.6936C35.2959 29.6936 34.3806 28.7783 34.3806 27.6492V22.4071C34.3806 22.3389 34.3253 22.2836 34.2571 22.2836H21.9071C21.8389 22.2836 21.7836 22.3389 21.7836 22.4071L21.7836 27.6492C21.7836 28.7783 20.8683 29.6936 19.7392 29.6936C19.6747 29.6936 19.6224 29.6413 19.6224 29.5768L19.6224 14.7568C19.6224 13.6277 20.5377 12.7124 21.6668 12.7124Z" fill="black"/>
<path fill-rule="evenodd" clip-rule="evenodd" d="M41.3435 12.6504C40.1498 12.6504 39.1822 13.618 39.1822 14.8116L39.1822 29.5765C39.1822 29.6411 39.2345 29.6934 39.299 29.6934C40.4281 29.6934 41.3435 28.778 41.3435 27.6489L41.3435 24.9386C41.3435 24.8704 41.3988 24.8151 41.467 24.8151H53.8787C53.9469 24.8151 54.0022 24.8704 54.0022 24.9386V27.5872C54.0022 28.7163 54.9175 29.6316 56.0466 29.6316C56.1111 29.6316 56.1634 29.5793 56.1634 29.5148V14.8116C56.1634 13.618 55.1958 12.6504 54.0022 12.6504H41.3435ZM54.0022 15.3056C54.0022 15.0328 53.781 14.8116 53.5082 14.8116H41.8375C41.5646 14.8116 41.3435 15.0328 41.3435 15.3056L41.3435 22.1599C41.3435 22.4327 41.5646 22.6539 41.8375 22.6539H53.5082C53.781 22.6539 54.0022 22.4327 54.0022 22.1599L54.0022 15.3056Z" fill="black"/>
<path fill-rule="evenodd" clip-rule="evenodd" d="M80.4645 12.5887C79.2709 12.5887 78.3033 13.5564 78.3033 14.75L78.3033 29.5766C78.3033 29.6412 78.3556 29.6935 78.4201 29.6935C79.5492 29.6935 80.4645 28.7781 80.4645 27.649L80.4645 24.136H93.1232C94.3168 24.136 95.2845 23.1684 95.2845 21.9747V14.75C95.2845 13.5564 94.3168 12.5887 93.1232 12.5887H80.4645ZM93.1232 15.244C93.1232 14.9712 92.9021 14.75 92.6292 14.75H80.9585C80.6857 14.75 80.4645 14.9712 80.4645 15.244L80.4645 21.4807C80.4645 21.7536 80.6857 21.9747 80.9585 21.9747H92.6292C92.9021 21.9747 93.1232 21.7536 93.1232 21.4807V15.244Z" fill="black"/>
<path fill-rule="evenodd" clip-rule="evenodd" d="M58.8046 14.8736C58.8046 13.68 59.7722 12.7124 60.9658 12.7124H73.501C74.6946 12.7124 75.6623 13.68 75.6623 14.8736V24.3214C75.6623 24.5942 75.4411 24.8154 75.1683 24.8154H73.276L75.5786 27.118C75.6242 27.1636 75.6242 27.2376 75.5786 27.2832C74.7802 28.0816 73.4857 28.0816 72.6873 27.2832L70.2195 24.8154H60.9658L60.9658 27.5941C60.9658 28.7878 59.9982 29.7554 58.8046 29.7554L58.8046 14.8736ZM60.9658 15.3676C60.9658 15.0948 61.187 14.8736 61.4598 14.8736H73.007C73.2798 14.8736 73.501 15.0948 73.501 15.3676V22.1601C73.501 22.433 73.2798 22.6541 73.007 22.6541H61.4598C61.187 22.6541 60.9658 22.433 60.9658 22.1601L60.9658 15.3676Z" fill="black"/>
<path d="M0 14.8116C0 13.618 0.967621 12.6504 2.16124 12.6504H14.9368C16.0659 12.6504 16.9812 13.5657 16.9812 14.6948C16.9812 14.7593 16.9289 14.8116 16.8644 14.8116H2.65524C2.38241 14.8116 2.16124 15.0328 2.16124 15.3056L2.16124 19.5664C2.16124 19.8392 2.38241 20.0604 2.65524 20.0604H14.8199C16.0136 20.0604 16.9812 21.028 16.9812 22.2216V27.4704C16.9812 28.664 16.0136 29.6316 14.8199 29.6316H0.116825C0.0523052 29.6316 0 29.5793 0 29.5148C0 28.3857 0.915317 27.4704 2.04442 27.4704H14.3259C14.5988 27.4704 14.8199 27.2492 14.8199 26.9764V22.7156C14.8199 22.4428 14.5988 22.2216 14.3259 22.2216H2.16124C0.967621 22.2216 0 21.254 0 20.0604V14.8116Z" fill="black"/>
<path fill-rule="evenodd" clip-rule="evenodd" d="M196.948 14.7578C196.948 13.5599 195.977 12.5887 194.779 12.5887V12.6507H182.075V12.5887C180.877 12.5887 179.906 13.5599 179.906 14.7578V27.5243C179.906 28.7223 180.877 29.6934 182.075 29.6934H194.779C195.977 29.6934 196.948 28.7223 196.948 27.5243V14.7578ZM182.075 27.0285C182.075 27.3024 182.297 27.5243 182.57 27.5243H194.284C194.557 27.5243 194.779 27.3024 194.779 27.0285V15.3156C194.779 15.0418 194.557 14.8198 194.284 14.8198H182.57C182.297 14.8198 182.075 15.0418 182.075 15.3156V27.0285Z" fill="black"/>
<path fill-rule="evenodd" clip-rule="evenodd" d="M216.632 14.7578C216.632 13.5599 215.661 12.5887 214.463 12.5887V12.6507H201.759V12.5887C200.561 12.5887 199.59 13.5599 199.59 14.7578V27.5243C199.59 28.7223 200.561 29.6934 201.759 29.6934H214.463C215.661 29.6934 216.632 28.7223 216.632 27.5243V14.7578ZM201.759 27.0285C201.759 27.3024 201.981 27.5243 202.254 27.5243H213.968C214.241 27.5243 214.463 27.3024 214.463 27.0285V15.3156C214.463 15.0418 214.241 14.8198 213.968 14.8198H202.254C201.981 14.8198 201.759 15.0418 201.759 15.3156V27.0285Z" fill="black"/>
<path d="M221.938 27.5863C221.665 27.5863 221.443 27.3643 221.443 27.0905V14.7645C221.443 13.6313 220.524 12.7126 219.391 12.7126C219.326 12.7126 219.274 12.7651 219.274 12.8299V27.5863C219.274 28.7842 220.245 29.7553 221.443 29.7553H234.265C235.398 29.7553 236.316 28.8367 236.316 27.7035C236.316 27.6387 236.264 27.5863 236.199 27.5863H221.938Z" fill="black"/>
<path d="M160.222 12.6508C160.222 13.8487 161.193 14.8198 162.391 14.8198H167.535C167.603 14.8198 167.659 14.8753 167.659 14.9438V29.5762C167.659 29.6409 167.711 29.6934 167.776 29.6934C168.909 29.6934 169.828 28.7748 169.828 27.6416V14.9438C169.828 14.8753 169.883 14.8198 169.952 14.8198H177.264C177.264 13.6219 176.293 12.6508 175.095 12.6508H160.222Z" fill="black"/>
<path d="M238.957 14.8817C238.957 13.6838 239.928 12.7126 241.126 12.7126H253.948C255.081 12.7126 256 13.6313 256 14.7645C256 14.8292 255.947 14.8817 255.883 14.8817H241.622C241.348 14.8817 241.126 15.1037 241.126 15.3775V19.6537C241.126 19.9275 241.348 20.1495 241.622 20.1495H253.831C255.029 20.1495 256 21.1206 256 22.3185V27.5863C256 28.7842 255.029 29.7553 253.831 29.7553H239.074C239.01 29.7553 238.957 29.7028 238.957 29.6381C238.957 28.5049 239.876 27.5863 241.009 27.5863H253.335C253.609 27.5863 253.831 27.3643 253.831 27.0905V22.8143C253.831 22.5405 253.609 22.3185 253.335 22.3185H241.126C239.928 22.3185 238.957 21.3474 238.957 20.1495V14.8817Z" fill="black"/>
</svg>
